<mxfile host="app.diagrams.net" modified="2022-11-30T09:35:13.552Z" agent="5.0 (X11; Linux x86_64) AppleWebKit/537.36 (KHTML, like Gecko) Chrome/107.0.0.0 Safari/537.36" etag="Q3fvrRH76r85F5zWtfQM" version="20.6.0" type="github">
  <diagram id="dlkjAAK67tu4DbZAiuwC" name="第 1 页">
    <mxGraphModel dx="1357" dy="776" grid="1" gridSize="10" guides="1" tooltips="1" connect="1" arrows="1" fold="1" page="1" pageScale="1" pageWidth="850" pageHeight="1100" math="0" shadow="0">
      <root>
        <mxCell id="0" />
        <mxCell id="1" parent="0" />
        <mxCell id="JKFY1ChdPfTzH7jj3pct-4" style="edgeStyle=orthogonalEdgeStyle;rounded=0;orthogonalLoop=1;jettySize=auto;html=1;entryX=0;entryY=0.5;entryDx=0;entryDy=0;" parent="1" source="JKFY1ChdPfTzH7jj3pct-1" target="JKFY1ChdPfTzH7jj3pct-2" edge="1">
          <mxGeometry relative="1" as="geometry" />
        </mxCell>
        <mxCell id="JKFY1ChdPfTzH7jj3pct-1" value="yaml" style="rounded=0;whiteSpace=wrap;html=1;" parent="1" vertex="1">
          <mxGeometry x="159" y="280" width="110" height="60" as="geometry" />
        </mxCell>
        <mxCell id="JKFY1ChdPfTzH7jj3pct-6" style="edgeStyle=orthogonalEdgeStyle;rounded=0;orthogonalLoop=1;jettySize=auto;html=1;entryX=0;entryY=0.5;entryDx=0;entryDy=0;" parent="1" source="JKFY1ChdPfTzH7jj3pct-2" target="JKFY1ChdPfTzH7jj3pct-3" edge="1">
          <mxGeometry relative="1" as="geometry" />
        </mxCell>
        <mxCell id="JKFY1ChdPfTzH7jj3pct-2" value="json" style="rounded=0;whiteSpace=wrap;html=1;" parent="1" vertex="1">
          <mxGeometry x="339" y="280" width="110" height="60" as="geometry" />
        </mxCell>
        <mxCell id="JKFY1ChdPfTzH7jj3pct-3" value="res.bin" style="rounded=0;whiteSpace=wrap;html=1;" parent="1" vertex="1">
          <mxGeometry x="600" y="220" width="110" height="60" as="geometry" />
        </mxCell>
        <mxCell id="JKFY1ChdPfTzH7jj3pct-5" value="yaml2json" style="text;html=1;strokeColor=none;fillColor=none;align=center;verticalAlign=middle;whiteSpace=wrap;rounded=0;" parent="1" vertex="1">
          <mxGeometry x="279" y="280" width="60" height="30" as="geometry" />
        </mxCell>
        <mxCell id="JKFY1ChdPfTzH7jj3pct-14" style="edgeStyle=orthogonalEdgeStyle;rounded=0;orthogonalLoop=1;jettySize=auto;html=1;entryX=0;entryY=0.5;entryDx=0;entryDy=0;" parent="1" source="JKFY1ChdPfTzH7jj3pct-10" target="JKFY1ChdPfTzH7jj3pct-11" edge="1">
          <mxGeometry relative="1" as="geometry" />
        </mxCell>
        <mxCell id="JKFY1ChdPfTzH7jj3pct-10" value="res.bin" style="rounded=0;whiteSpace=wrap;html=1;" parent="1" vertex="1">
          <mxGeometry x="159" y="453" width="110" height="60" as="geometry" />
        </mxCell>
        <mxCell id="JKFY1ChdPfTzH7jj3pct-19" style="edgeStyle=orthogonalEdgeStyle;rounded=0;orthogonalLoop=1;jettySize=auto;html=1;entryX=0;entryY=0.5;entryDx=0;entryDy=0;" parent="1" source="JKFY1ChdPfTzH7jj3pct-11" target="JKFY1ChdPfTzH7jj3pct-12" edge="1">
          <mxGeometry relative="1" as="geometry" />
        </mxCell>
        <mxCell id="JKFY1ChdPfTzH7jj3pct-11" value="json" style="rounded=0;whiteSpace=wrap;html=1;" parent="1" vertex="1">
          <mxGeometry x="339" y="453" width="110" height="60" as="geometry" />
        </mxCell>
        <mxCell id="JKFY1ChdPfTzH7jj3pct-12" value="yaml" style="rounded=0;whiteSpace=wrap;html=1;" parent="1" vertex="1">
          <mxGeometry x="529" y="453" width="110" height="60" as="geometry" />
        </mxCell>
        <mxCell id="JKFY1ChdPfTzH7jj3pct-17" value="json2yaml" style="text;html=1;strokeColor=none;fillColor=none;align=center;verticalAlign=middle;whiteSpace=wrap;rounded=0;" parent="1" vertex="1">
          <mxGeometry x="459" y="453" width="60" height="30" as="geometry" />
        </mxCell>
        <mxCell id="TEpJ4h3JRhwcw7SN2m3m-2" style="edgeStyle=orthogonalEdgeStyle;rounded=0;orthogonalLoop=1;jettySize=auto;html=1;entryX=0;entryY=0.5;entryDx=0;entryDy=0;" parent="1" source="TEpJ4h3JRhwcw7SN2m3m-1" target="JKFY1ChdPfTzH7jj3pct-3" edge="1">
          <mxGeometry relative="1" as="geometry" />
        </mxCell>
        <mxCell id="TEpJ4h3JRhwcw7SN2m3m-1" value="fbs" style="rounded=0;whiteSpace=wrap;html=1;" parent="1" vertex="1">
          <mxGeometry x="339" y="170" width="110" height="60" as="geometry" />
        </mxCell>
        <mxCell id="TEpJ4h3JRhwcw7SN2m3m-4" value="&lt;h1&gt;Encoder&lt;/h1&gt;" style="text;html=1;strokeColor=none;fillColor=none;spacing=5;spacingTop=-20;whiteSpace=wrap;overflow=hidden;rounded=0;" parent="1" vertex="1">
          <mxGeometry x="10" y="230" width="130" height="60" as="geometry" />
        </mxCell>
        <mxCell id="TEpJ4h3JRhwcw7SN2m3m-5" value="&lt;h1&gt;Decoder&lt;/h1&gt;" style="text;html=1;strokeColor=none;fillColor=none;spacing=5;spacingTop=-20;whiteSpace=wrap;overflow=hidden;rounded=0;" parent="1" vertex="1">
          <mxGeometry x="10" y="453" width="130" height="60" as="geometry" />
        </mxCell>
        <mxCell id="TEpJ4h3JRhwcw7SN2m3m-6" value="flatc" style="text;html=1;strokeColor=none;fillColor=none;align=center;verticalAlign=middle;whiteSpace=wrap;rounded=0;" parent="1" vertex="1">
          <mxGeometry x="529" y="220" width="60" height="30" as="geometry" />
        </mxCell>
        <mxCell id="TEpJ4h3JRhwcw7SN2m3m-7" value="flatc" style="text;html=1;strokeColor=none;fillColor=none;align=center;verticalAlign=middle;whiteSpace=wrap;rounded=0;" parent="1" vertex="1">
          <mxGeometry x="269" y="453" width="60" height="30" as="geometry" />
        </mxCell>
        <mxCell id="TEpJ4h3JRhwcw7SN2m3m-8" value="&lt;h1&gt;Development&lt;/h1&gt;" style="text;html=1;strokeColor=none;fillColor=none;spacing=5;spacingTop=-20;whiteSpace=wrap;overflow=hidden;rounded=0;" parent="1" vertex="1">
          <mxGeometry y="670" width="160" height="60" as="geometry" />
        </mxCell>
        <mxCell id="TEpJ4h3JRhwcw7SN2m3m-11" style="edgeStyle=orthogonalEdgeStyle;rounded=0;orthogonalLoop=1;jettySize=auto;html=1;" parent="1" source="TEpJ4h3JRhwcw7SN2m3m-9" target="TEpJ4h3JRhwcw7SN2m3m-10" edge="1">
          <mxGeometry relative="1" as="geometry" />
        </mxCell>
        <mxCell id="TEpJ4h3JRhwcw7SN2m3m-9" value="fbs" style="rounded=0;whiteSpace=wrap;html=1;" parent="1" vertex="1">
          <mxGeometry x="159" y="660" width="110" height="60" as="geometry" />
        </mxCell>
        <mxCell id="TEpJ4h3JRhwcw7SN2m3m-10" value="reader.h" style="rounded=0;whiteSpace=wrap;html=1;" parent="1" vertex="1">
          <mxGeometry x="339" y="660" width="110" height="60" as="geometry" />
        </mxCell>
        <mxCell id="TEpJ4h3JRhwcw7SN2m3m-12" value="flatcc" style="text;html=1;strokeColor=none;fillColor=none;align=center;verticalAlign=middle;whiteSpace=wrap;rounded=0;" parent="1" vertex="1">
          <mxGeometry x="269" y="660" width="60" height="30" as="geometry" />
        </mxCell>
        <mxCell id="TEpJ4h3JRhwcw7SN2m3m-13" value="&lt;div style=&quot;color: rgb(212, 212, 212); background-color: rgb(30, 30, 30); font-family: &amp;quot;Droid Sans Mono&amp;quot;, &amp;quot;monospace&amp;quot;, monospace; font-size: 14px; line-height: 19px;&quot;&gt;&lt;div&gt;&lt;span style=&quot;color: #4ec9b0;&quot;&gt;#include &quot;aec_reader.h&quot;&lt;/span&gt;&lt;/div&gt;&lt;div&gt;&lt;span style=&quot;color: #4ec9b0;&quot;&gt;&lt;br&gt;&lt;/span&gt;&lt;/div&gt;&lt;div&gt;    &lt;span style=&quot;color: #4ec9b0;&quot;&gt;FILE&lt;/span&gt; *&lt;span style=&quot;color: #9cdcfe;&quot;&gt;fp&lt;/span&gt; = &lt;span style=&quot;color: #dcdcaa;&quot;&gt;fopen&lt;/span&gt;(&lt;span style=&quot;color: #ce9178;&quot;&gt;&quot;aec_resource.bin&quot;&lt;/span&gt;, &lt;span style=&quot;color: #ce9178;&quot;&gt;&quot;rb&quot;&lt;/span&gt;);&lt;/div&gt;&lt;div&gt;    &lt;span style=&quot;color: #569cd6;&quot;&gt;char&lt;/span&gt; *&lt;span style=&quot;color: #9cdcfe;&quot;&gt;buffer&lt;/span&gt; = &lt;span style=&quot;color: #dcdcaa;&quot;&gt;calloc&lt;/span&gt;(&lt;span style=&quot;color: #b5cea8;&quot;&gt;1&lt;/span&gt;, &lt;span style=&quot;color: #b5cea8;&quot;&gt;100000&lt;/span&gt;);&lt;/div&gt;&lt;div&gt;    &lt;span style=&quot;color: #569cd6;&quot;&gt;int&lt;/span&gt; &lt;span style=&quot;color: #9cdcfe;&quot;&gt;size&lt;/span&gt; = &lt;span style=&quot;color: #dcdcaa;&quot;&gt;fread&lt;/span&gt;(&lt;span style=&quot;color: #9cdcfe;&quot;&gt;buffer&lt;/span&gt;, &lt;span style=&quot;color: #b5cea8;&quot;&gt;1&lt;/span&gt;, &lt;span style=&quot;color: #b5cea8;&quot;&gt;100000&lt;/span&gt;, &lt;span style=&quot;color: #9cdcfe;&quot;&gt;fp&lt;/span&gt;);&lt;/div&gt;&lt;div&gt;    &lt;span style=&quot;color: #dcdcaa;&quot;&gt;fclose&lt;/span&gt;(&lt;span style=&quot;color: #9cdcfe;&quot;&gt;fp&lt;/span&gt;); &lt;/div&gt;&lt;div&gt;    &lt;span style=&quot;color: #dcdcaa;&quot;&gt;printf&lt;/span&gt;(&lt;span style=&quot;color: #ce9178;&quot;&gt;&quot;aec size=&lt;/span&gt;&lt;span style=&quot;color: #9cdcfe;&quot;&gt;%d&lt;/span&gt;&lt;span style=&quot;color: #d7ba7d;&quot;&gt;\n&lt;/span&gt;&lt;span style=&quot;color: #ce9178;&quot;&gt;&quot;&lt;/span&gt;, &lt;span style=&quot;color: #9cdcfe;&quot;&gt;size&lt;/span&gt;);&lt;/div&gt;&lt;div&gt;    &lt;span style=&quot;color: #569cd6;&quot;&gt;AEC_NAMESPACE&lt;/span&gt;(&lt;span style=&quot;color: #4ec9b0;&quot;&gt;table_t&lt;/span&gt;) &lt;span style=&quot;color: #9cdcfe;&quot;&gt;aec_resource&lt;/span&gt; = &lt;span style=&quot;color: #569cd6;&quot;&gt;AEC_NAMESPACE&lt;/span&gt;(&lt;span style=&quot;color: #dcdcaa;&quot;&gt;as_root&lt;/span&gt;(&lt;span style=&quot;color: #9cdcfe;&quot;&gt;buffer&lt;/span&gt;));&lt;/div&gt;&lt;br&gt;&lt;div&gt;    &lt;span style=&quot;color: #9cdcfe;&quot;&gt;pstAecCfg&lt;/span&gt;-&amp;gt;&lt;span style=&quot;color: #9cdcfe;&quot;&gt;frameShift&lt;/span&gt;   = &lt;span style=&quot;color: #569cd6;&quot;&gt;AEC_NAMESPACE&lt;/span&gt;(&lt;span style=&quot;color: #dcdcaa;&quot;&gt;aec_frameShift&lt;/span&gt;(&lt;span style=&quot;color: #9cdcfe;&quot;&gt;aec_resource&lt;/span&gt;));&lt;/div&gt;&lt;div&gt;    &lt;span style=&quot;color: #9cdcfe;&quot;&gt;pstAecCfg&lt;/span&gt;-&amp;gt;&lt;span style=&quot;color: #9cdcfe;&quot;&gt;taps&lt;/span&gt;         = &lt;span style=&quot;color: #569cd6;&quot;&gt;AEC_NAMESPACE&lt;/span&gt;(&lt;span style=&quot;color: #dcdcaa;&quot;&gt;aec_taps&lt;/span&gt;(&lt;span style=&quot;color: #9cdcfe;&quot;&gt;aec_resource&lt;/span&gt;));&lt;/div&gt;&lt;div&gt;    &lt;span style=&quot;color: #9cdcfe;&quot;&gt;pstAecCfg&lt;/span&gt;-&amp;gt;&lt;span style=&quot;color: #9cdcfe;&quot;&gt;hdr&lt;/span&gt;          = &lt;span style=&quot;color: #b5cea8;&quot;&gt;0&lt;/span&gt;;&lt;/div&gt;&lt;div&gt;    &lt;span style=&quot;color: #9cdcfe;&quot;&gt;pstAecCfg&lt;/span&gt;-&amp;gt;&lt;span style=&quot;color: #9cdcfe;&quot;&gt;fs&lt;/span&gt;           = &lt;span style=&quot;color: #569cd6;&quot;&gt;AEC_NAMESPACE&lt;/span&gt;(&lt;span style=&quot;color: #dcdcaa;&quot;&gt;aec_fs&lt;/span&gt;(&lt;span style=&quot;color: #9cdcfe;&quot;&gt;aec_resource&lt;/span&gt;));&lt;/div&gt;&lt;div&gt;    &lt;span style=&quot;color: #9cdcfe;&quot;&gt;pstAecCfg&lt;/span&gt;-&amp;gt;&lt;span style=&quot;color: #9cdcfe;&quot;&gt;wavChan&lt;/span&gt;      = &lt;span style=&quot;color: #569cd6;&quot;&gt;AEC_NAMESPACE&lt;/span&gt;(&lt;span style=&quot;color: #dcdcaa;&quot;&gt;aec_wavChan&lt;/span&gt;(&lt;span style=&quot;color: #9cdcfe;&quot;&gt;aec_resource&lt;/span&gt;));&lt;/div&gt;&lt;div&gt;    &lt;span style=&quot;color: #9cdcfe;&quot;&gt;pstAecCfg&lt;/span&gt;-&amp;gt;&lt;span style=&quot;color: #9cdcfe;&quot;&gt;micNum&lt;/span&gt;       = &lt;span style=&quot;color: #569cd6;&quot;&gt;AEC_NAMESPACE&lt;/span&gt;(&lt;span style=&quot;color: #dcdcaa;&quot;&gt;aec_micNum&lt;/span&gt;(&lt;span style=&quot;color: #9cdcfe;&quot;&gt;aec_resource&lt;/span&gt;));&lt;/div&gt;&lt;div&gt;    &lt;span style=&quot;color: #9cdcfe;&quot;&gt;pstAecCfg&lt;/span&gt;-&amp;gt;&lt;span style=&quot;color: #9cdcfe;&quot;&gt;refNum&lt;/span&gt;       = &lt;span style=&quot;color: #569cd6;&quot;&gt;AEC_NAMESPACE&lt;/span&gt;(&lt;span style=&quot;color: #dcdcaa;&quot;&gt;aec_refNum&lt;/span&gt;(&lt;span style=&quot;color: #9cdcfe;&quot;&gt;aec_resource&lt;/span&gt;));&lt;/div&gt;&lt;div&gt;    &lt;span style=&quot;color: #9cdcfe;&quot;&gt;pstAecCfg&lt;/span&gt;-&amp;gt;&lt;span style=&quot;color: #9cdcfe;&quot;&gt;vadFlag&lt;/span&gt;      = &lt;span style=&quot;color: #569cd6;&quot;&gt;AEC_NAMESPACE&lt;/span&gt;(&lt;span style=&quot;color: #dcdcaa;&quot;&gt;aec_vadFlag&lt;/span&gt;(&lt;span style=&quot;color: #9cdcfe;&quot;&gt;aec_resource&lt;/span&gt;));&lt;/div&gt;&lt;div&gt;    &lt;span style=&quot;color: #9cdcfe;&quot;&gt;pstAecCfg&lt;/span&gt;-&amp;gt;&lt;span style=&quot;color: #9cdcfe;&quot;&gt;pFilterFlag&lt;/span&gt;  = &lt;span style=&quot;color: #569cd6;&quot;&gt;AEC_NAMESPACE&lt;/span&gt;(&lt;span style=&quot;color: #dcdcaa;&quot;&gt;aec_pFilterFlag&lt;/span&gt;(&lt;span style=&quot;color: #9cdcfe;&quot;&gt;aec_resource&lt;/span&gt;));&lt;/div&gt;&lt;div&gt;    &lt;span style=&quot;color: #9cdcfe;&quot;&gt;pstAecCfg&lt;/span&gt;-&amp;gt;&lt;span style=&quot;color: #9cdcfe;&quot;&gt;voipFlag&lt;/span&gt;     = &lt;span style=&quot;color: #569cd6;&quot;&gt;AEC_NAMESPACE&lt;/span&gt;(&lt;span style=&quot;color: #dcdcaa;&quot;&gt;aec_voipFlag&lt;/span&gt;(&lt;span style=&quot;color: #9cdcfe;&quot;&gt;aec_resource&lt;/span&gt;));&lt;/div&gt;&lt;div&gt;    &lt;span style=&quot;color: #9cdcfe;&quot;&gt;pstAecCfg&lt;/span&gt;-&amp;gt;&lt;span style=&quot;color: #9cdcfe;&quot;&gt;bssFlag&lt;/span&gt;      = &lt;span style=&quot;color: #569cd6;&quot;&gt;AEC_NAMESPACE&lt;/span&gt;(&lt;span style=&quot;color: #dcdcaa;&quot;&gt;bssFlag&lt;/span&gt;(&lt;span style=&quot;color: #9cdcfe;&quot;&gt;aec_resource&lt;/span&gt;));&lt;/div&gt;&lt;br&gt;&lt;/div&gt;" style="text;html=1;strokeColor=default;fillColor=none;align=left;verticalAlign=middle;whiteSpace=wrap;rounded=0;" parent="1" vertex="1">
          <mxGeometry x="110" y="790" width="710" height="370" as="geometry" />
        </mxCell>
      </root>
    </mxGraphModel>
  </diagram>
</mxfile>
